<?xml version="1.0" encoding="utf-8"?>
<!-- Generator: Adobe Illustrator 27.2.0, SVG Export Plug-In . SVG Version: 6.00 Build 0)  -->
<svg version="1.1" id="Capa_1" xmlns="http://www.w3.org/2000/svg" xmlns:xlink="http://www.w3.org/1999/xlink" x="0px" y="0px"
	 viewBox="0 0 1497 504" style="enable-background:new 0 0 1497 504;" xml:space="preserve">
<style type="text/css">
	.st0{fill:#FFFFFF;}
</style>
<path class="st0" d="M698.3,59.1c6.9-0.3,13.8,0,20.8-0.2c2.5-0.1,5,0,7.5,0.7c0.5,4.1-1,8.1-0.2,12.1c3,0.3,5.9-0.3,8.8-0.8
	c1.7-0.5,3.7,1,3.4,2.8c0,8.8-0.1,17.7-0.1,26.5c-3.4,1.2-6.8-0.2-10.2-0.4c-1.2,0.4-2.3,1.6-2.2,2.9c0,3.4,0,7,1.8,10.1
	c5.1-0.3,10.2-0.2,15.3,0.7c5.1,2.9,4.4,9.4,4.1,14.3c1.2,1.5,2.8,2.9,4.9,2.5c4.7-0.3,9.8,4.1,8.4,9c-1.2,3.5-4.9,5-7.4,7.4
	c-3.1,3-5.7,6.3-8.3,9.6c-4.5,5.8-6.4,13.2-7.5,20.4c1.5,1.5,3,3,4.6,4.5c-1.2,2.6-3.7,4.4-4,7.4c-0.8,3.7-0.5,7.5-0.5,11.2
	c1.9,2.6,5.1,3.1,8.1,3.7c2.8,4-2.1,9.6,2.4,12.8c2.1,0.1,4.7-0.6,6.2,1.2c1.8,2.5,0.5,6-2.2,7.2c-4.5,1.8-9.6,1.2-14.2,2.5
	c-0.7,5.8-0.1,11.6-0.2,17.4c0.1,18.3-0.3,36.7,0,55c1.1,13.7,4.6,27.1,9.4,40c5.2,12.6,13.4,23.8,22.4,33.9
	c2.6,3.4,3.3,7.9,3.3,12.1c-0.1,6.4-0.1,12.8,0.1,19.2c3.8,2.4,3.5,7,3.7,10.9c0.2,1.5-0.8,3.1-2.4,3.4c-5.8,1.4-11.9,1.5-17.8,1.8
	c-21.9,2.1-44,1.8-66,1.5c-8-0.8-16-0.7-23.9-1.7c-6.2,0-12.4-0.8-18.3-2.8c-1.6-3.3-0.1-6.9-0.1-10.3c1-1.3,3.1-2.1,3-4
	c0.2-6.6,0.2-13.3,0.1-20c0-3.5,1.1-7.1,3.3-10c20.1-22.4,31.2-52.1,32.4-82c-0.1-21.4,0.5-42.9,0-64.3c-4.8-2.6-11-0.5-15.5-3.8
	c-1.9-1.3-2.2-3.8-1.6-5.9c1.6-3,5.9-0.4,7.6-3.2c2.6-2.9-0.3-6.7,0.9-9.9c1.4-3.9,7.1-1.7,8.4-5.7c0.6-3.7,0.3-7.6,0.2-11.3
	c0.1-2.4-2.2-3.9-3-6c-0.6-2.2,2.1-3.2,3.1-4.9c0.5-2,0.2-4.1-0.3-6.1c-2-7.5-5.5-14.7-10.7-20.5c-2.8-3.3-6.4-5.7-9.4-8.9
	c-2.5-2.5-2.8-7,0.1-9.3c2.2-2.8,6-1.8,9.1-1.8c2.8-3.2,2.2-7.6,2.4-11.5c0-3.3,2.8-6.4,6.2-6.3c4.5-0.2,9,0,13.4-0.2
	c0.6-3.9,1.2-7.9,1.1-11.8c-3.4-1.4-6.9,0.7-10.3,0.3c-2.5-0.8-2.2-3.8-2.2-5.9c0.2-7.9-0.3-15.8,0.5-23.6c4.2-1.5,8.5,1.2,12.7-0.1
	C699.1,67.2,697.7,63.2,698.3,59.1L698.3,59.1z"/>
<path class="st0" d="M856.8,80.9c4.5-1.6,9.5-2.1,14.2-1.4c5.6,0.7,10.2,5.1,12.2,10.2c1,3.9,0.5,8.4-2.1,11.7
	c-3.1,3.6-2.3,8.7-1.6,13c2.7,0.8,5.9,0.9,7.9,3.2c2.6,3.3,3.9,7.6,6.8,10.7c5.5,2.5,12.9-2.3,17.8,2.4c3.7,2.6,3.9,8.9,0,11.3
	c-10.5,8.4-18.6,20.6-19.7,34.2c1.1,1.1,2.2,2.3,3.3,3.4c-0.1,3.1-3,5.3-3,8.5c-0.2,3.4-0.1,6.8-0.2,10.2c0.7,0.7,1.5,1.3,2.3,2
	c2.9,0,6.3,1.5,6.9,4.6c0,2.9-1,5.6-0.9,8.5c0.4,0.3,1.2,1,1.6,1.3c2.5,0,5.8-0.8,7.4,1.8c2.1,2.6-0.4,6.2-3.1,7.3
	c-4.3,1.9-9.3,1.7-13.8,3c-0.5,2.7-0.5,5.5-0.5,8.2c0.3,17.6-0.1,35.3,0.2,52.9c0.9,7,0.3,14.2,1.7,21.2c2.8,17.1,9.2,33.6,19,48
	c2.5,3.7,4.6,7.8,7.7,11c2.6,2.8,4.9,5.9,6.7,9.3c1.9,4.3,0.9,9.2,1.1,13.8c0.2,4.3,0.2,8.7,0.4,13c3.9,2.8,4.1,8.2,2.9,12.4
	c-1.6,2.2-4.9,2-7.3,2.8c-11.9,1.9-24,1.5-35.9,2.6c-11.7,0.4-23.3,0.1-35,0.2c-10.7,0.1-21.3-1.3-32-1.1c-6.8-1.1-13.9,0-20.3-2.7
	c-0.2-3.4-0.3-6.9,0.4-10.3c0.2-1.9,2.3-2.9,2.6-4.8c1-9-1.1-18.2,1.5-27c2.3-4.1,5.9-7.5,8.7-11.3c10.5-13.1,18.7-28.3,22-44.8
	c2.3-8.9,3.7-18,3.6-27.1c0-12.7,0-25.3-0.3-38c-0.5-9-0.3-18.1,0.4-27c-0.3-0.3-0.8-0.9-1.1-1.2c-5.2-1.4-11.8-0.1-15.8-4.4
	c-2.2-1.9-1.3-5.9,1.4-6.8c2.1-0.6,4.2-0.8,6.3-1.1c0.5-3.4,0.2-6.8,0.1-10.2c0.8-0.8,1.6-1.6,2.4-2.3c1.8-0.4,3.9-0.5,5.3-1.9
	c1.5-4.7,0.4-9.7,0.2-14.5c-1-1-2-2-2.9-3c0-1.1,0-2.3,0-3.4c5-1.7,3.2-7.8,2-11.5c-2-7.5-7.1-13.5-11.8-19.4
	c-3.3-3.8-9.9-6-9.4-11.9c-0.3-3,2-5.5,4.7-6.5c5-0.4,10,0.3,15.1,0.3c1.9-3.7,3.9-7.4,6.1-10.9c1.8-2.8,5.1-3.6,8.2-3.9
	c1.6-3.1,1.3-6.8,1-10.1c-1-3.5-4-6.2-4-10C847.4,89.1,851.2,82.9,856.8,80.9L856.8,80.9z"/>
<path class="st0" d="M297.5,129.8c0.6-2.1,2.2-4.1,4.5-4.2c9.1-0.9,18.2,1,27,3.1c4.9,7.1,6.8,15.7,12.1,22.4
	c5.2,8.6,9.9,17.6,14.3,26.6c2.9,5.5,2.2,12.1,5.3,17.6c4,8.6,9.3,17,9.8,26.8c0.9,4.6-1.4,9.4,0.7,13.9c3.5,8.9,5.2,18.5,4.9,28.1
	c-0.1,2.9-1,5.7-2.4,8.1c0.9,9.9,1.3,19.9,0.5,29.8c-0.3,4.9,0,11.5-4.9,14.2c-8.1,2.1-16.6,1.8-24.9,3.3c-0.2,5,1.4,9.9,3.9,14.2
	c4.1,8.6,9.3,16.7,15.1,24.3c3.7,5.7,10.2,9.6,11.8,16.6c1.2,8.1,0.7,16.3,1.2,24.4c3.6,3.8,3.5,9.8,2.2,14.6
	c-10.3,2.8-21,3.5-31.6,3.6c-21,1.6-42,1.1-63,0.8c-11-1.2-22.3-0.4-33.1-3.3c-2.8-3.9-2-10,1-13.7c1.4-1.6,0.8-3.9,1-5.9
	c0.2-6.4-0.5-12.8,0.4-19.1c1.3-7,7.7-11,11.5-16.4c9.2-11.2,14.5-24.9,19.6-38.3c-0.4-0.6-1.1-1.8-1.4-2.4
	c-6.9-1.2-13.9-1.4-20.7-3.2c-1.7-5.7,0.8-11.5,2-17c5-19.1,9.9-38.3,14.4-57.6c1.4-5.5,2.2-11.1,2-16.8c-3.6-0.3-7.3,0.3-10.9,0.5
	c-8-0.6-16-1.4-24-2c-2.6-0.3-5.1-0.6-7.6-1.5c-3.1-1.8-2-5.9-3-8.8c-2.1-5.8-4.5-12-3.4-18.3c1.8-2.9,5.1-4.4,7.7-6.5
	c15.9-11.8,32-23.2,47.8-35c1.6-1.3,3.3-2.8,3.9-4.9C293.5,141.8,295.3,135.7,297.5,129.8L297.5,129.8z"/>
<path class="st0" d="M1183,129c4.6-1.5,9.3-1.5,14.1-2c5.3,1.1,11-0.3,16.1,1.7c2.7,6.1,4.2,12.5,6.2,18.8c0.7,1.8,0.8,4,2.5,5.2
	c19.3,14.3,39.4,27.6,58.6,42.1c0.9,8.2-2.8,16-4.6,23.9c-1.5,3.9-6.3,3.8-9.8,4.2c-7.4,0.1-14.7,1.4-22.1,1.1
	c-3.8-0.2-7.6,0.3-11.2,1.8c-0.8,2.7-2.2,5.5-1.5,8.4c1.7,8.7,4,17.2,6.1,25.8c3.8,14,6.9,28.3,11.3,42.1c1,3.2,2.3,6.4,2.3,9.9
	c0.3,2.3-1.8,4.3-4,4.6c-6.2,1.4-12.6,1.2-18.8,2.8c2.6,17.1,13.2,31.5,23.2,45.1c4,3.7,8.3,7.6,8.7,13.4c0.1,7.6-0.3,15.3-0.2,23
	c1,1,2.1,2,3.2,3c0.4,3.1,0.5,6.2,0.3,9.4c-14.5,4.1-29.7,3.6-44.6,3.9c-11,0.5-21.9,0.2-32.9,0.1c-11.4-0.5-22.8,0.2-34.1-1.2
	c-5.8-0.8-11.6-0.5-17.3-1.7c-0.9-3.9-0.4-7.9,0.2-11.8c0.8-1.3,1.9-2.5,2.8-3.8c0.5-4.6,0.1-9.2,0.2-13.8c0.1-4.3-0.7-8.9,1.4-12.8
	c1.2-2.9,3.5-5,5.5-7.3c8.7-10.8,16.6-22.5,21.2-35.6c1.2-3.3,3-6.5,2.7-10c-6.5-0.2-12.9-0.9-19.3-1.5c-3.2-0.6-7.4-0.7-9.2-4
	c-2.8-5.5-2.2-11.8-2.7-17.7c-0.7-7.4,0.5-14.8,0.4-22.1c-2.7-14.2-2-29.5,3.5-43c0.9-3.5,0.7-7.2,1.3-10.7
	c0.4-10.4,5.1-20,10.4-28.8c2-9,4.7-18,9.4-26.1c3.8-6.8,8.3-13,12.4-19.6C1177.7,140.1,1180.1,134.4,1183,129L1183,129z"/>
<path class="st0" d="M1010.6,132.7c1.1-2,3.5-1.6,5.4-1.7c8.4,0.1,16.7-0.2,25.1,0.5c1.1,0.1,2.1,0.7,3.2,1.2
	c0.2,0.6,0.5,1.9,0.7,2.6c-0.2,0.5-0.6,1.5-0.8,2c-1.7,0.5-3.5,1-5.2,1.5c-0.4,0.5-1.1,1.6-1.5,2.1c1.2,4.6,5.8,6.7,9,9.6
	c5.3,5,11.5,9.2,15.8,15.1c4.9,6.9,6.8,16.5,2.9,24.2c-1.8,4.8-5.8,8.1-9.6,11.3c-0.2,2-0.3,3.9-0.4,5.9c0.8,0.8,1.6,1.5,2.4,2.3
	c0,0.6,0,1.8,0,2.4c-1.4,1.3-2.9,2.6-3.9,4.2c-0.7,4.7,0,9.4-0.2,14.1c0.3,0.6,1,1.7,1.3,2.2c2.2,0.7,4.4,1.5,6.5,2.6
	c0.3,1,0.7,2,1.1,2.9c-1.4,3.2-1.2,6.7-0.1,9.9c3.7-0.3,10.9-1.7,11.5,2.6c0.5,3.1-3.5,4.5-6.6,5.6c-4.3,1.7-9.1,1.7-13.6,2.6
	c-0.8,4.8-0.1,9.7-0.2,14.5c0.3,9.3-0.3,18.7,0.8,28c0.7,19.7,8.5,38.3,17.3,55.6c3.8,5.9,7.4,12.1,12.8,16.8
	c1.5,2.8,3.4,5.4,3.9,8.5c0.5,5.8-0.1,11.6,0.3,17.4c0.3,3.1,3,5.1,3.9,8c0.6,2.6,0.4,5.4,0.1,8c-5.3,1.9-11,2.1-16.5,2.6
	c-30.9,2.4-62,2.3-92.9,0.2c-6.5-0.1-13-0.5-19.5-1.6c-1-3.5-0.5-7.1-0.1-10.6c0-2.2,2.3-3.3,3.1-5.2c0.5-6.6-0.5-13.1,0-19.7
	c0.7-4.3,3.7-7.7,6.6-10.9c5.1-5.7,9.3-12.1,13.2-18.7c4.4-7.3,6.4-15.6,9.5-23.5c3.5-12.6,6.1-25.7,5.8-38.9
	c0-10.1,0.3-20.3-0.1-30.5c-5.1-1.9-11.3-0.6-15.8-4.3c-1.8-1.2-2-3.9-1.3-5.7c1.4-2.5,4.6-2,7-2.3c0.8-0.7,1.5-1.4,2.3-2.2
	c-0.2-3.3-3-7.5,0.3-10c2.1-1.9,6.5-0.8,7-4.4c0.8-4.9,0.3-9.9,0.5-14.8c-1.4-1.4-2.9-2.7-4.4-4c1.3-3.4,4.6-8,1.3-11.2
	c-7.2-4.8-11.7-13.8-10.3-22.4c0.4-6.2,3.8-11.7,8-16c6.3-5.4,12.2-11.1,18.7-16.3c1.7-1.1,2.2-3.2,3-5c-1.9-1.2-4-2-6.2-2.5
	C1011,135.9,1009.5,134.3,1010.6,132.7L1010.6,132.7z"/>
<path class="st0" d="M84.7,186.7l8.3-0.1c6.7-0.4,13.5-0.4,20.2-0.1c0.2,1.2,0.4,2.4,0.6,3.5c4.4,0,8.8,0,13.1,0
	c0.7-0.9,1.4-1.9,2.2-2.8c6.7-0.1,13.3-0.5,20,0.2c1.2,0.1,2.3,0.7,3.4,1.2c0.7,0,2.2,0.1,2.9,0.1c-0.2,5.8,0.2,11.6,0,17.4
	c0,1.9-1.8,3.1-2.8,4.5c0.9,7.1,0.8,14.3,0.2,21.4c-0.1,3.1-1.9,5.9-4.8,7.1c-4.2,1.8-8.9,1.4-13.3,2.4c-0.3,0.4-1,1.3-1.3,1.8
	c-0.2,3.9-0.2,7.8-0.1,11.7c0.6,17.7-0.8,35.5,1.6,53.1c3.2,17.5,10,34.3,20.3,48.8c4.2,6.8,11.8,11.7,13.1,20.1
	c0.6,7.3-0.7,14.8,0.6,22c3.7,3.8,3.9,9.3,3.6,14.3c-7.1,3.1-14.9,2.5-22.4,3.4c-8.1,0.1-16,1.6-24.1,1.2
	c-20.4,0.8-40.7,0.4-61.1-0.2c-5.7-0.6-11.3-1.3-17-1.9c-2.3-0.3-5-0.6-6.3-2.8c-0.3-4.3-0.2-9,3-12.4c0.8-7.2-0.2-14.6,0.3-21.9
	c0.3-4,2.5-7.4,4.8-10.5c2.8-2.8,5.6-5.6,7.4-9.1c1.3-2.8,3-5.3,4.6-7.9c11.8-19.5,18.8-42.4,17.7-65.3c0-14.5,0.2-29,0.1-43.4
	c-5.5-2.2-12.4-0.8-17.1-5.1c-3.7-4.2-2.1-10.4-2.5-15.5c-0.6-5.4,2.8-12-1.9-16.2c-0.1-5.6,0.1-11.3-0.1-16.9
	c4.1-1.6,8.7-0.9,13.1-1.1c4.2-0.3,7.8,2.5,12,2.3L84.7,186.7L84.7,186.7z"/>
<path class="st0" d="M1409.7,191.1c4.2,0.3,7.7-2.5,11.9-2.2c4.3,0.1,8.8-0.6,12.9,1c-0.2,5.6,0,11.1-0.1,16.7
	c-4.7,4.2-1.3,10.7-1.9,16c-0.4,5,1.2,11.1-2.5,15.3c-4.6,4.3-11.4,2.9-16.8,5c-0.1,14.3,0.1,28.5,0.1,42.8
	c-1,22.6,5.9,45.1,17.5,64.3c1.5,2.6,3.3,5.1,4.5,7.8c1.8,3.4,4.6,6.2,7.3,9c2.2,3.1,4.4,6.5,4.7,10.4c0.5,7.2-0.5,14.4,0.3,21.5
	c3.1,3.3,3.2,7.9,2.9,12.2c-1.3,2.1-4,2.4-6.2,2.7c-5.6,0.6-11.2,1.2-16.8,1.9c-20.1,0.6-40.2,1-60.3,0.2c-8,0.4-15.8-1.1-23.8-1.2
	c-7.4-0.9-15.1-0.4-22.1-3.4c-0.3-5-0.1-10.3,3.6-14.1c1.3-7.1,0-14.5,0.6-21.7c1.2-8.3,8.8-13.1,12.9-19.8
	c10.1-14.3,16.9-30.8,20-48c2.3-17.3,1-34.8,1.6-52.3c0.1-3.8,0.1-7.7-0.1-11.5c-0.3-0.4-0.9-1.3-1.3-1.8c-4.3-1.1-8.9-0.6-13.1-2.4
	c-2.8-1.2-4.6-4-4.7-7c-0.6-7-0.6-14.1,0.2-21.1c-1-1.4-2.8-2.5-2.8-4.4c-0.2-5.7,0.2-11.4,0-17.2c0.7,0,2.1-0.1,2.8-0.1
	c1.1-0.5,2.2-1.1,3.4-1.2c6.6-0.7,13.2-0.2,19.7-0.2c0.7,0.9,1.4,1.8,2.1,2.8c4.3,0,8.6,0,13,0c0.2-1.2,0.4-2.3,0.6-3.5
	c6.7-0.3,13.3-0.3,20,0.1l8.2,0.1C1408.6,188.9,1409.1,190,1409.7,191.1L1409.7,191.1z"/>
<path class="st0" d="M586.2,405.9c-0.1-2.1-2.6-3-2.9-4.9c-0.9-9.2,2.7-20.3-4.5-27.8c-10.6-12.2-19.3-26.3-23.8-41.9
	c-4.3-11.9-5.6-24.7-6.4-37.2c0.1-11.8,0-23.5,0-35.3c6-1.7,13.1-0.7,18.1-5c-0.1-1.6,0.4-3.4-0.6-4.8c-1.5-2.4-4.8-1.9-7.2-2.5
	c-0.5-0.9-1.1-1.8-1.6-2.6c0.4-2.9,2.4-6.3,0.2-8.9c-1.4-2.2-4.3-1.9-6.3-2.9c-3.1-2.3-1.1-6.7-1.6-9.9c-0.4-3.8,0.4-8,4-10
	c0.1-0.9,0.2-1.9,0.3-2.8c-2.1-2-2.8-4.7-2.4-7.5c4.2-3.5,8.4-7.2,10.2-12.5c3.6-7.3,1.4-15.9-2.3-22.7
	c-4.3-5.9-10.2-10.1-15.3-15.2c-3.5-3.6-8.6-6.1-10.3-11.2c3-2.2,8.2-2.3,8.2-7.2c-3.9-2.8-9-1.4-13.5-1.9h-18.8
	c-1.3,0.1-2.5,0.6-3.1,2c-0.7,4.2,4,5.1,7,5.8c0.1,0.6,0.4,1.7,0.5,2.2c-6.1,7.2-14.1,12.5-20.9,19.1c-8,6.7-12.3,18.7-7.9,28.6
	c2,5.4,6.7,9.1,10.5,13.1c0.3,3-1.6,5.2-3.2,7.5c-0.6,2.5,2.7,3.4,4.1,4.9c0.2,4.9,0.3,9.8,0.1,14.7c0.1,1.8-1.6,2.6-2.6,3.7
	c-1.8,0.1-4.1-0.4-5.3,1.4c-2.5,2.9,0.4,6.6-0.3,9.9c-1.3,2.5-4.6,1.6-6.9,2.4c-2.8,0.4-2.3,3.7-2.5,5.8c3.9,6,11.6,4.3,17.5,6.3
	c-0.1,25.1,1,51.1-8.1,75.1c-1.5,5.9-3.7,11.7-7.2,16.8c-4.7,8.1-9.8,16-16.4,22.7c-2.1,2.5-4.2,5.5-4.3,8.9
	c-0.2,6.5,0.3,13-0.3,19.4c-3.8,2.7-3.6,7.6-4,11.7c0.3,0.6,1,1.8,1.4,2.3c6.7,2.6,14,2.2,21,2.8c21.4,2.5,42.9,1.6,64.3,1.7
	c13-1,26.1-0.8,39-3c2-0.1,3.5-1.4,4.8-2.7C586.6,411.4,586.6,408.6,586.2,405.9L586.2,405.9z"/>
</svg>
